<svg width="61" height="67" viewBox="0 0 61 67" fill="none" xmlns="http://www.w3.org/2000/svg">
<path d="M59.1794 36.7383C57.9859 35.8617 56.1844 35.2185 53.6392 35.2185C49.0782 35.2185 44.635 38.0828 44.635 44.7481C44.635 51.1209 49.0782 54.1024 53.4631 54.1024C58.0622 54.1024 60.9787 51.2762 60.9787 47.1445C60.9787 44.5337 59.3342 42.7214 56.0262 42.7214H55.066C53.3442 42.7214 52.0127 43.5198 52.0127 45.2741C52.0127 46.872 53.4608 47.6325 54.5377 47.6325C55.066 47.6325 55.4351 47.7877 55.4351 48.1975C55.4351 48.7045 54.8091 49.035 54.1428 49.035C51.9308 49.035 50.4232 47.5342 50.4232 44.7481C50.4232 41.6494 52.4793 40.5193 54.0643 40.5193C56.0027 40.5193 56.3156 41.4931 57.6673 41.4931C58.3549 41.4999 59.0171 41.235 59.5088 40.7565C60.0004 40.2779 60.2814 39.6248 60.2899 38.9404C60.2977 38.5112 60.2007 38.0866 60.0073 37.7031C59.8139 37.3195 59.5298 36.9884 59.1794 36.7383Z" fill="#D42A27"/>
<path d="M33.1034 46.518V50.7278C33.1034 52.6172 32.0075 54.118 29.9906 54.118C27.9737 54.118 26.8789 52.6172 26.8789 50.7278V38.6835C26.8789 36.7539 28.0141 35.2151 30.0691 35.2151C31.303 35.2151 32.3799 35.683 33.4175 37.6896L36.1377 42.9514C36.2757 43.2249 36.3923 43.3221 36.5494 43.3221C36.7648 43.3221 36.8859 43.1658 36.8859 42.8151V38.6053C36.8859 36.7159 37.9818 35.2151 39.9976 35.2151C42.0134 35.2151 43.1104 36.7159 43.1104 38.6053V50.6497C43.1104 52.5793 41.9752 54.118 39.9202 54.118C38.7256 54.118 37.6094 53.6501 36.5718 51.6435L33.8516 46.3818C33.7136 46.1082 33.597 46.011 33.4399 46.011C33.2212 46.0066 33.1034 46.1674 33.1034 46.518Z" fill="#D42A27"/>
<path d="M6.42086 50.6686V47.9049C6.42086 47.6715 6.51957 47.4962 6.75738 47.4962C7.07034 47.4962 7.14886 47.8077 7.22738 47.963C7.67608 49.035 8.98851 51.313 10.2022 52.6597C11.0245 53.553 12.043 54.1214 13.1187 54.1214C14.9393 54.1214 16.466 52.5435 16.466 50.8473C16.466 49.7954 16.0173 49.016 15.1547 48.0802C14.0588 46.8921 12.7665 45.3321 12.2965 44.6118C12.1817 44.4585 12.1136 44.2756 12.1002 44.0848C12.1002 43.8704 12.218 43.7152 12.4524 43.5008C13.001 42.9938 14.3515 41.7275 15.0952 40.5773C15.664 39.7007 15.8984 38.9023 15.8984 38.239C15.8984 36.5439 14.3515 35.2184 12.6678 35.2184C11.5921 35.2184 10.5735 35.8226 9.88814 36.9336C8.96832 38.4143 7.86902 40.1295 7.16681 40.8118C6.9907 40.9871 6.89311 41.0251 6.75626 41.0251C6.52181 41.0251 6.41974 40.8699 6.41974 40.6164V38.6645C6.41974 36.7539 5.28454 35.2151 3.22952 35.2151C1.15543 35.2151 0.0393066 36.7539 0.0393066 38.6645V50.6686C0.0393066 52.5793 1.16104 54.118 3.23064 54.118C5.28566 54.118 6.42086 52.5793 6.42086 50.6686Z" fill="#D42A27"/>
<path d="M59.3555 56.0867C60.4919 56.0867 61 56.6328 61 57.5875C61 59.2625 59.4542 61.6019 56.4009 63.3171C51.3116 66.1814 42.58 67.0021 30.5011 67.0021C18.4223 67.0021 9.69068 66.1814 4.59912 63.3149C1.54575 61.5997 0 59.2614 0 57.5853C0 56.6305 0.509268 56.0845 1.64446 56.0845L59.3555 56.0867Z" fill="#F48438"/>
<path d="M59.3555 18.884H1.64446C0.509268 18.884 0 18.2988 0 17.2469C0 11.0103 9.41585 0 30.5 0C51.389 0 61 11.0103 61 17.2469C61 18.2988 60.4919 18.884 59.3555 18.884Z" fill="#F48438"/>
<path d="M55.6168 26.6402C55.2803 26.6402 55.1277 26.4448 55.1277 26.1935V24.8669C55.1277 24.6134 55.2836 24.4202 55.6168 24.4202H55.8905C56.7127 24.4202 56.9674 25.0054 56.9674 25.5123C56.9674 25.9992 56.7127 26.6424 55.8905 26.6424L55.6168 26.6402ZM40.5238 22.1188C39.7016 21.5147 38.5462 21.0669 36.8221 21.0669C33.7934 21.0669 30.832 23.0546 30.832 27.6552C30.832 32.0605 33.7878 34.1062 36.7054 34.1062C39.7779 34.1062 41.7162 32.1576 41.7162 29.3124C41.7162 27.5 40.6203 26.2527 38.4273 26.2527H37.8025C36.6471 26.2527 35.7464 26.7987 35.7464 28.026C35.7464 29.1169 36.7066 29.644 37.429 29.644C37.8014 29.644 38.0358 29.7557 38.0358 30.0337C38.0358 30.3844 37.6253 30.6177 37.1553 30.6177C35.6869 30.6177 34.6874 29.5848 34.6874 27.6552C34.6874 25.5123 36.0582 24.7329 37.1149 24.7329C38.4071 24.7329 38.6225 25.3951 39.5232 25.3951C39.7535 25.3942 39.9813 25.3481 40.1935 25.2594C40.4058 25.1707 40.5984 25.0411 40.7602 24.8781C40.9221 24.7151 41.05 24.5219 41.1367 24.3096C41.2234 24.0973 41.2671 23.87 41.2653 23.6408C41.2709 23.3469 41.2066 23.0558 41.0778 22.7914C40.9489 22.5269 40.7591 22.2964 40.5238 22.1188V22.1188ZM48.2167 29.1147H46.8706C46.5341 29.1147 46.3815 29.3101 46.3815 29.5614V29.931C46.3815 30.1845 46.5375 30.3777 46.8706 30.3777H48.6329C49.7288 30.3777 50.5903 31.0209 50.5903 32.1699C50.5903 33.339 49.7288 33.9822 48.6329 33.9822H44.9311C43.3854 33.9822 42.6405 33.0889 42.6405 31.8773V23.279C42.6405 22.0708 43.3854 21.1741 44.9311 21.1741H48.6329C49.7288 21.1741 50.5903 21.8173 50.5903 22.9675C50.5903 24.1366 49.7288 24.7798 48.6329 24.7798H46.8661C46.5296 24.7798 46.3771 24.9741 46.3771 25.2265V25.5391C46.3771 25.7915 46.533 25.9858 46.8661 25.9858H48.2122C49.1522 25.9858 49.8948 26.5508 49.8948 27.5491C49.8948 28.5474 49.1567 29.1147 48.2167 29.1147ZM51.4697 31.9801C51.4697 33.1492 52.1551 34.085 53.4081 34.085C54.6611 34.085 55.3465 33.1492 55.3465 31.9801V29.9142C55.3465 29.6608 55.4642 29.5435 55.6594 29.5435C55.8939 29.5435 55.9724 29.6797 56.0116 29.9142C56.1878 30.9081 56.6578 32.2525 57.1861 32.9348C57.8524 33.8114 58.4783 34.085 59.1054 34.085C60.1228 34.085 61.0034 33.2854 61.0034 32.2916C61.0034 31.6294 60.7297 31.1415 60.3774 30.6937C59.7122 29.8551 59.3006 29.3101 59.0459 28.6278C58.9876 28.4715 59.0269 28.3353 59.203 28.199C59.8098 27.7312 60.5143 26.6982 60.5143 25.0612C60.5143 22.5867 58.4593 21.183 55.9724 21.183H53.757C52.2112 21.183 51.4664 22.0764 51.4664 23.2879L51.4697 31.9801ZM21.1066 31.9801C21.1066 33.1492 21.792 34.085 23.0449 34.085C24.2979 34.085 24.9833 33.1492 24.9833 31.9801V29.9142C24.9833 29.6608 25.0955 29.5435 25.2963 29.5435C25.5307 29.5435 25.6092 29.6797 25.6485 29.9142C25.8246 30.9081 26.2946 32.2525 26.8229 32.9348C27.4893 33.8114 28.1152 34.085 28.7422 34.085C29.7597 34.085 30.6402 33.2854 30.6402 32.2916C30.6402 31.6294 30.3665 31.1415 30.0143 30.6937C29.4467 29.9533 28.9374 29.3101 28.6828 28.6278C28.6245 28.4715 28.6637 28.3353 28.8398 28.199C29.4467 27.7312 30.1511 26.6982 30.1511 25.0612C30.1511 22.5867 28.0961 21.183 25.6092 21.183H23.3938C21.8469 21.183 21.1032 22.0764 21.1032 23.2879L21.1066 31.9801ZM25.257 26.6402C24.9205 26.6402 24.7679 26.4448 24.7679 26.1935V24.8669C24.7679 24.6134 24.9239 24.4202 25.257 24.4202H25.5307C26.3529 24.4202 26.6076 25.0054 26.6076 25.5123C26.6076 25.9992 26.3529 26.6424 25.5307 26.6424L25.257 26.6402ZM3.94402 28.6502H4.29625C5.23626 28.6502 5.50997 29.2744 5.50997 29.8394C5.50997 30.3464 5.23626 31.0678 4.29625 31.0678H3.93505C3.59853 31.0678 3.44597 30.8735 3.44597 30.6211V29.0957C3.44597 28.8422 3.60189 28.6468 3.93505 28.6468L3.94402 28.6502ZM3.94402 26.3119C3.6075 26.3119 3.45495 26.1176 3.45495 25.8652V24.5353C3.45495 24.2818 3.61087 24.0886 3.94402 24.0886H4.19866C5.03996 24.0886 5.29459 24.6726 5.29459 25.1796C5.29459 25.6475 5.03996 26.3096 4.19866 26.3096L3.94402 26.3119ZM2.29058 33.9867H5.04781C7.65136 33.9867 9.23637 32.2525 9.23637 30.0896C9.23637 28.3554 8.19877 27.5558 7.96433 27.3615C7.86673 27.2834 7.76802 27.2052 7.76802 27.127C7.76802 27.0299 7.82747 26.9908 7.92506 26.8736C8.42433 26.2871 8.68909 25.5382 8.66878 24.7698C8.66878 22.4303 7.08376 21.183 4.61707 21.183H2.29058C0.743711 21.183 0 22.0797 0 23.2879V31.8863C0 33.0911 0.743711 33.9867 2.29058 33.9867ZM14.9954 34.085C11.8242 34.085 10.1607 32.1945 10.1607 29.8171V23.2489C10.1607 22.0797 10.8449 21.1439 12.0979 21.1439C13.3509 21.1439 14.0565 22.0797 14.0565 23.2489V29.6027C14.0565 30.0695 14.2909 30.6155 14.9954 30.6155C15.6998 30.6155 15.9746 30.0695 15.9746 29.6027V23.2489C15.9746 22.0797 16.66 21.1439 17.913 21.1439C19.166 21.1439 19.8547 22.0797 19.8547 23.2489V29.8149C19.8547 32.1945 18.1721 34.085 14.9954 34.085Z" fill="#D42A27"/>
<path d="M24.6076 38.8979C24.6076 36.8522 23.4141 35.2129 21.2211 35.2129C19.0281 35.2129 17.8357 36.8499 17.8357 38.8979V50.4353C17.8357 52.481 19.0292 54.1203 21.2222 54.1203C23.4152 54.1203 24.6087 52.4832 24.6087 50.4353L24.6076 38.8979Z" fill="#D42A27"/>
<path d="M58.2249 65.3418C58.2205 65.2127 58.2422 65.084 58.2888 64.9635C58.3354 64.8429 58.4059 64.7329 58.496 64.6401C58.5862 64.5472 58.6942 64.4733 58.8137 64.4229C58.9331 64.3724 59.0615 64.3464 59.1913 64.3464C59.3211 64.3464 59.4495 64.3724 59.5689 64.4229C59.6884 64.4733 59.7964 64.5472 59.8866 64.6401C59.9767 64.7329 60.0472 64.8429 60.0938 64.9635C60.1404 65.084 60.1621 65.2127 60.1577 65.3418C60.1621 65.4709 60.1404 65.5995 60.0938 65.7201C60.0472 65.8406 59.9767 65.9506 59.8866 66.0435C59.7964 66.1364 59.6884 66.2102 59.5689 66.2607C59.4495 66.3111 59.3211 66.3371 59.1913 66.3371C59.0615 66.3371 58.9331 66.3111 58.8137 66.2607C58.6942 66.2102 58.5862 66.1364 58.496 66.0435C58.4059 65.9506 58.3354 65.8406 58.2888 65.7201C58.2422 65.5995 58.2205 65.4709 58.2249 65.3418ZM59.9468 65.3418C59.943 65.1938 59.8955 65.0502 59.8102 64.9289C59.7249 64.8077 59.6055 64.7142 59.4671 64.6601C59.3287 64.6061 59.1773 64.5938 59.0319 64.625C58.8865 64.6561 58.7536 64.7293 58.6498 64.8352C58.5459 64.9412 58.4758 65.0753 58.4481 65.2208C58.4205 65.3662 58.4365 65.5166 58.4942 65.653C58.552 65.7894 58.6489 65.9059 58.7728 65.9878C58.8966 66.0696 59.042 66.1133 59.1907 66.1134C59.2919 66.1142 59.3921 66.0947 59.4855 66.0559C59.5788 66.0172 59.6633 65.9601 59.734 65.888C59.8046 65.8159 59.8598 65.7304 59.8964 65.6365C59.933 65.5427 59.9501 65.4424 59.9468 65.3418V65.3418ZM58.8553 65.7538V64.9353C58.8567 64.909 58.8674 64.8841 58.8855 64.8649C58.9035 64.8457 58.9278 64.8335 58.9541 64.8303H59.2278C59.4454 64.8303 59.5968 64.9621 59.5968 65.1385C59.5994 65.217 59.5714 65.2934 59.5187 65.3519C59.4661 65.4104 59.3928 65.4463 59.3141 65.4523L59.5306 65.6946C59.5493 65.7119 59.5608 65.7353 59.5632 65.7605C59.564 65.7736 59.562 65.7868 59.5573 65.7991C59.5526 65.8114 59.5454 65.8225 59.5361 65.8318C59.5267 65.8411 59.5155 65.8483 59.5032 65.853C59.4908 65.8576 59.4776 65.8596 59.4644 65.8588C59.4474 65.8587 59.4307 65.8543 59.4158 65.8461C59.401 65.8379 59.3884 65.8262 59.3792 65.8119L59.0898 65.4769H59.0573V65.7583C59.0568 65.7716 59.0537 65.7848 59.0482 65.7969C59.0427 65.8091 59.0348 65.8201 59.025 65.8292C59.0152 65.8383 59.0037 65.8454 58.9911 65.8501C58.9786 65.8548 58.9652 65.857 58.9518 65.8566C58.9254 65.8554 58.9006 65.844 58.8825 65.8248C58.8645 65.8056 58.8547 65.7801 58.8553 65.7538ZM59.2042 65.2893C59.322 65.2893 59.3882 65.2301 59.3882 65.1519C59.3882 65.0738 59.3287 65.0202 59.2244 65.0202H59.0595V65.2893H59.2042Z" fill="#D42A27"/>
</svg>
