<svg width="17" height="18" viewBox="0 0 17 18" fill="none" xmlns="http://www.w3.org/2000/svg">
<path d="M8.50186 4.72788C6.13711 4.72788 4.22969 6.6353 4.22969 9.00005C4.22969 11.3648 6.13711 13.2722 8.50186 13.2722C10.8666 13.2722 12.774 11.3648 12.774 9.00005C12.774 6.6353 10.8666 4.72788 8.50186 4.72788ZM8.50186 11.7775C6.97369 11.7775 5.72439 10.5319 5.72439 9.00005C5.72439 7.46817 6.96997 6.22259 8.50186 6.22259C10.0337 6.22259 11.2793 7.46817 11.2793 9.00005C11.2793 10.5319 10.03 11.7775 8.50186 11.7775ZM13.9452 4.55313C13.9452 5.10714 13.4991 5.5496 12.9488 5.5496C12.3948 5.5496 11.9523 5.10342 11.9523 4.55313C11.9523 4.00284 12.3985 3.55666 12.9488 3.55666C13.4991 3.55666 13.9452 4.00284 13.9452 4.55313ZM16.7748 5.56447C16.7116 4.22965 16.4067 3.04727 15.4288 2.07312C14.4546 1.09896 13.2723 0.794067 11.9374 0.72714C10.5617 0.649059 6.43828 0.649059 5.06256 0.72714C3.73145 0.790349 2.54908 1.09524 1.5712 2.0694C0.593323 3.04356 0.292152 4.22593 0.225225 5.56075C0.147144 6.93647 0.147144 11.0599 0.225225 12.4356C0.288434 13.7705 0.593323 14.9528 1.5712 15.927C2.54908 16.9012 3.72774 17.206 5.06256 17.273C6.43828 17.351 10.5617 17.351 11.9374 17.273C13.2723 17.2098 14.4546 16.9049 15.4288 15.927C16.403 14.9528 16.7078 13.7705 16.7748 12.4356C16.8529 11.0599 16.8529 6.94019 16.7748 5.56447ZM14.9975 13.9117C14.7075 14.6405 14.146 15.202 13.4136 15.4957C12.3167 15.9307 9.71398 15.8303 8.50186 15.8303C7.28974 15.8303 4.6833 15.927 3.59016 15.4957C2.8614 15.2057 2.29996 14.6442 2.00623 13.9117C1.5712 12.8149 1.67159 10.2122 1.67159 9.00005C1.67159 7.78793 1.57492 5.1815 2.00623 4.08836C2.29624 3.3596 2.85768 2.79816 3.59016 2.50442C4.68702 2.0694 7.28974 2.16979 8.50186 2.16979C9.71398 2.16979 12.3204 2.07312 13.4136 2.50442C14.1423 2.79444 14.7038 3.35588 14.9975 4.08836C15.4325 5.18522 15.3321 7.78793 15.3321 9.00005C15.3321 10.2122 15.4325 12.8186 14.9975 13.9117Z" fill="white"/>
</svg>
