<svg width="19" height="20" viewBox="0 0 19 20" fill="none" xmlns="http://www.w3.org/2000/svg">
<path d="M18.25 8.19961C16.5303 8.20372 14.8527 7.6674 13.4543 6.66641V13.6477C13.4538 14.9407 13.0586 16.2027 12.3215 17.265C11.5844 18.3274 10.5406 19.1393 9.32952 19.5924C8.11849 20.0455 6.798 20.118 5.54463 19.8003C4.29126 19.4826 3.16475 18.7899 2.31573 17.8147C1.4667 16.8395 0.935637 15.6283 0.793539 14.3431C0.651441 13.058 0.905084 11.76 1.52055 10.6229C2.13602 9.48578 3.08398 8.56366 4.23767 7.97983C5.39137 7.39601 6.6958 7.17832 7.97656 7.35586V10.8672C7.39048 10.6828 6.76114 10.6884 6.17841 10.8831C5.59568 11.0777 5.08936 11.4515 4.73175 11.9511C4.37414 12.4507 4.18354 13.0505 4.18716 13.6649C4.19078 14.2793 4.38843 14.8768 4.7519 15.3721C5.11537 15.8675 5.62606 16.2353 6.21104 16.4231C6.79602 16.6109 7.42539 16.609 8.00925 16.4178C8.59311 16.2265 9.10162 15.8557 9.46215 15.3582C9.82268 14.8607 10.0168 14.262 10.0168 13.6477V0H13.4543C13.4519 0.290289 13.4762 0.580182 13.5269 0.866016C13.6464 1.50409 13.8948 2.1111 14.2568 2.6499C14.6189 3.1887 15.0871 3.64796 15.6328 3.99961C16.4091 4.51293 17.3193 4.78652 18.25 4.78633V8.19961Z" fill="white"/>
</svg>
