<svg width="17" height="12" viewBox="0 0 17 12" fill="none" xmlns="http://www.w3.org/2000/svg">
<path d="M16.4851 1.97421C16.2934 1.25247 15.7286 0.684051 15.0116 0.491149C13.7118 0.140625 8.5 0.140625 8.5 0.140625C8.5 0.140625 3.28821 0.140625 1.98844 0.491149C1.27137 0.684081 0.706611 1.25247 0.51493 1.97421C0.166664 3.28241 0.166664 6.01183 0.166664 6.01183C0.166664 6.01183 0.166664 8.74126 0.51493 10.0495C0.706611 10.7712 1.27137 11.3159 1.98844 11.5088C3.28821 11.8594 8.5 11.8594 8.5 11.8594C8.5 11.8594 13.7118 11.8594 15.0116 11.5088C15.7286 11.3159 16.2934 10.7712 16.4851 10.0495C16.8333 8.74126 16.8333 6.01183 16.8333 6.01183C16.8333 6.01183 16.8333 3.28241 16.4851 1.97421ZM6.79544 8.48995V3.53372L11.1515 6.01189L6.79544 8.48995Z" fill="white"/>
</svg>
